<svg xmlns="http://www.w3.org/2000/svg" width="48" height="48" fill="none" viewBox="0 0 48 48">
  <path fill="url(#a)" d="m30.85 23.25.63.364c4.759 2.749 6.39 7.898 3.642 12.658s-10.71 6.391-15.469 3.643l-9.166-5.293a.75.75 0 0 1-.056-1.264l6.479-4.549a3 3 0 0 1 3.175-.17l4.237 2.342a2.16 2.16 0 0 0 1.141.324h.003a2.17 2.17 0 0 0 2.168-2.169v-7.742z"/>
  <path fill="url(#b)" d="M12.972 11.728c2.748-4.76 10.709-6.391 15.468-3.643l9.172 5.296a.75.75 0 0 1 .058 1.261l-6.57 4.656a3 3 0 0 1-3.186.177l-4.242-2.345a2.16 2.16 0 0 0-1.104-.301h-.003c-1.197 0-2.168.97-2.168 2.168v7.573l-3.153-1.82-.63-.364c-4.76-2.749-6.39-7.898-3.642-12.658"/>
  <defs>
    <linearGradient id="a" x1="11.612" x2="35.481" y1="36.303" y2="25.611" gradientUnits="userSpaceOnUse"><stop stop-color="#ea72b4"/><stop offset=".437" stop-color="#764ae4"/><stop offset="1" stop-color="#516ffc"/></linearGradient>
    <linearGradient id="b" x1="13.781" x2="37.635" y1="21.632" y2="10.928" gradientUnits="userSpaceOnUse"><stop stop-color="#516ffc"/><stop offset=".348" stop-color="#764ae4"/><stop offset=".669" stop-color="#bb51b5"/><stop offset="1" stop-color="#ea72b4"/></linearGradient>
  </defs>
</svg>
